<?xml version="1.0" encoding="utf-8"?>
<!-- Generator: Adobe Illustrator 23.0.1, SVG Export Plug-In . SVG Version: 6.00 Build 0)  -->
<svg version="1.1" xmlns="http://www.w3.org/2000/svg" viewBox="0 0 453.9 56.03" xml:space="preserve">
	<g>
		<g>
			<path class="st0" d="M223.61,9.83l7.18,6.52c3.29-3.38,7.35-5.17,12.38-5.46c3.13-0.18,7.72,0.49,10.38,3
				c1.34,1.26,2.02,2.83,2.02,4.65c0,5.66-5.15,6.61-9.28,7.37c-0.43,0.08-0.85,0.16-1.26,0.24c-5.79,1.14-10.11,2.79-13.59,5.18
				c-5.21,3.58-7.97,8.47-7.97,14.15v8.53h43.18v-9.56h-32.21v-0.5c0-4.35,3.77-6.38,6.61-7.52c2.01-0.81,4.31-1.27,6.53-1.7
				c0.97-0.19,1.93-0.38,2.84-0.6c4.45-1.05,8.68-2.24,11.61-5.28c2.52-2.61,3.97-6.39,3.97-10.39c0-5.47-3.11-10.63-8.31-13.79
				c-3.68-2.24-8.56-3.35-14.48-3.3C235.89,1.44,228.09,4.82,223.61,9.83z"/>
			<path class="st0" d="M318.89,36.2h-9.35V8.56c0-3.74-2.88-6.62-6.99-7.01c-3.62-0.33-7.19,1.06-9.33,3.65l-22.5,26.51
				c-1.57,2.02-3,4.63-1.71,8.65c0.95,2.11,2.6,4.31,7.53,4.31h22.56v9.34h10.43v-9.34h9.35V36.2H318.89z M299.11,36.2h-21.07l21.07-24.76V36.2z"/>
			<path class="st0" d="M155.77,24.95h-29.34v-6.6c0-4.58,2.02-6.71,6.34-6.71h25.07V2.09h-27.03c-9.27,0-14.81,5.32-14.81,14.23
				v37.72h10.43V33.47h29.34V24.95z"/>
			<path class="st0" d="M216.83,24.55c-0.63-5.49-3.54-11.52-7.44-15.38c-5.2-5.14-11.99-7.98-19.12-7.98
				c-14.73,0-26.71,12.03-26.71,26.81c0,9.3,4.77,17.79,12.75,22.73c4.13,2.58,8.98,3.95,14.03,3.95c7,0,13.79-2.78,18.73-7.66
				l-7.36-6.46c-3.1,2.81-7.23,4.42-11.41,4.43c-4.52-0.01-9.05-1.89-12.11-5.03c-1.66-1.71-2.93-3.67-3.78-5.82l-0.27-0.68h42.32
				C216.69,32.36,217.33,28.93,216.83,24.55z M173.5,24.98l0.13-0.61c0.69-3.15,2.26-6.05,4.55-8.39c5.29-5.41,13.88-6.64,20.42-2.94
				c4.24,2.39,7.28,6.52,8.34,11.32l0.13,0.61H173.5V24.98z"/>
			<path class="st0" d="M28.05,45.88L28.05,45.88c-9.85-0.02-17.87-8.03-17.89-17.86c0.02-9.84,8.04-17.85,17.89-17.87
				c4.38,0.01,8.57,1.6,11.85,4.5l7.68-6.74C42.32,2.81,35.41,0,28.06,0C12.59,0,0.01,12.57,0,28.02c0,15.45,12.59,28.01,28.05,28.01
				c7.3,0,14.19-2.78,19.44-7.83l-7-7.37C37.14,44.08,32.74,45.87,28.05,45.88z"/>
			<path class="st0" d="M103.82,54.03V2.12H93.34v6.47l-0.89-1.08c-3.06-3.73-9.21-6.24-15.32-6.24c-14.75,0-26.74,12-26.74,26.74
				c0,14.65,11.84,26.57,26.39,26.57c3.91,0,11.16-0.8,15.68-6.18l0.88-1.05v6.68L103.82,54.03L103.82,54.03z M77.1,44.97
				c-9.39,0-17.04-7.64-17.04-17.04c0-9.39,7.64-17.04,17.04-17.04c4.55,0,8.83,1.77,12.05,4.99s4.99,7.5,4.99,12.05
				C94.13,37.32,86.49,44.97,77.1,44.97z"/>
		</g>
		<g>
			<path class="st1" d="M357.14,45.92c0,2.59-0.96,4.59-2.89,5.99c-1.93,1.41-4.64,2.11-8.13,2.11c-3.69,0-6.57-0.58-8.63-1.75v-3.91
				c1.34,0.68,2.77,1.21,4.3,1.6c1.53,0.39,3.01,0.58,4.43,0.58c2.2,0,3.89-0.35,5.08-1.05c1.18-0.7,1.78-1.77,1.78-3.21
				c0-1.08-0.47-2.01-1.41-2.78s-2.77-1.68-5.5-2.73c-2.59-0.96-4.43-1.81-5.52-2.53s-1.9-1.54-2.44-2.45s-0.8-2.01-0.8-3.28
				c0-2.27,0.92-4.06,2.77-5.37c1.84-1.31,4.38-1.97,7.59-1.97c3,0,5.92,0.61,8.79,1.83l-1.5,3.43c-2.79-1.15-5.32-1.73-7.59-1.73
				c-2,0-3.5,0.31-4.52,0.94s-1.52,1.49-1.52,2.59c0,0.75,0.19,1.38,0.57,1.9s0.99,1.02,1.84,1.5c0.85,0.47,2.47,1.16,4.88,2.06
				c3.3,1.2,5.53,2.41,6.69,3.63C356.56,42.54,357.14,44.07,357.14,45.92z"/>
			<path class="st1" d="M373.34,50.54c0.74,0,1.46-0.05,2.16-0.17c0.69-0.11,1.24-0.22,1.65-0.34v3.22c-0.46,0.22-1.13,0.4-2.02,0.55
				c-0.89,0.14-1.69,0.22-2.4,0.22c-5.38,0-8.07-2.83-8.07-8.51V28.96h-3.99v-2.03l3.99-1.75l1.78-5.94h2.44v6.45h8.07v3.28h-8.07
				v16.38c0,1.68,0.4,2.96,1.19,3.86C370.86,50.09,371.95,50.54,373.34,50.54z"/>
			<path class="st1" d="M405.48,39.57c0,4.54-1.14,8.08-3.43,10.63c-2.29,2.55-5.44,3.82-9.47,3.82c-2.49,0-4.7-0.58-6.63-1.75
				s-3.42-2.84-4.47-5.03c-1.05-2.18-1.57-4.74-1.57-7.67c0-4.54,1.13-8.07,3.4-10.6s5.42-3.8,9.45-3.8c3.89,0,6.99,1.29,9.28,3.88
				C404.33,31.65,405.48,35.15,405.48,39.57z M384.28,39.57c0,3.55,0.71,6.26,2.13,8.13c1.42,1.86,3.51,2.79,6.27,2.79
				s4.85-0.93,6.28-2.78c1.43-1.85,2.15-4.57,2.15-8.14c0-3.54-0.72-6.22-2.15-8.06c-1.43-1.84-3.54-2.75-6.33-2.75
				c-2.76,0-4.84,0.91-6.25,2.72C384.98,33.28,384.28,35.98,384.28,39.57z"/>
			<path class="st1" d="M424.61,25.17c1.24,0,2.34,0.1,3.33,0.3l-0.58,3.91c-1.15-0.25-2.17-0.38-3.05-0.38
				c-2.25,0-4.18,0.91-5.78,2.74c-1.6,1.83-2.4,4.1-2.4,6.83V53.5h-4.21V25.67h3.48l0.48,5.15h0.2c1.03-1.81,2.28-3.21,3.73-4.19
				C421.26,25.66,422.86,25.17,424.61,25.17z"/>
			<path class="st1" d="M443.67,54.02c-4.11,0-7.36-1.25-9.74-3.76c-2.38-2.5-3.57-5.98-3.57-10.44c0-4.49,1.1-8.05,3.31-10.69
				s5.18-3.96,8.9-3.96c3.49,0,6.25,1.15,8.28,3.44s3.05,5.32,3.05,9.08v2.67h-19.17c0.08,3.27,0.91,5.75,2.48,7.44
				s3.77,2.54,6.61,2.54c3,0,5.96-0.63,8.89-1.88v3.76c-1.49,0.64-2.9,1.1-4.23,1.38C447.15,53.88,445.55,54.02,443.67,54.02z
				 M442.52,28.7c-2.23,0-4.02,0.73-5.34,2.18c-1.33,1.46-2.11,3.47-2.35,6.04h14.55c0-2.66-0.59-4.69-1.78-6.11
				C446.42,29.41,444.72,28.7,442.52,28.7z"/>
		</g>
	</g>
</svg>
